<svg width="300" height="250" viewBox="0 0 300 250" fill="none" xmlns="http://www.w3.org/2000/svg">
<path d="M0 20C0 8.9543 8.95431 0 20 0H280C291.046 0 300 8.95431 300 20V230C300 241.046 291.046 250 280 250H20C8.9543 250 0 241.046 0 230V20Z" fill="white"/>
<path d="M20.4474 207.164V202.325H21.3104C21.6044 202.078 21.8793 201.727 22.1349 201.271C22.3906 200.815 22.608 200.199 22.7869 199.423C22.9659 198.648 23.0895 197.653 23.1577 196.438L23.4645 190.909H31.5376V202.325H33.0206V207.145H31.1286V204H22.3395V207.164H20.4474ZM23.6371 202.325H29.6456V192.609H25.2543L25.0497 196.438C24.9943 197.363 24.9027 198.194 24.7749 198.931C24.6513 199.668 24.4915 200.32 24.2955 200.887C24.1037 201.45 23.8842 201.929 23.6371 202.325ZM39.1665 204.198C38.2461 204.198 37.4428 203.987 36.7567 203.565C36.0707 203.143 35.538 202.553 35.1587 201.795C34.7795 201.036 34.5898 200.15 34.5898 199.136C34.5898 198.117 34.7795 197.227 35.1587 196.464C35.538 195.701 36.0707 195.109 36.7567 194.687C37.4428 194.265 38.2461 194.054 39.1665 194.054C40.087 194.054 40.8903 194.265 41.5763 194.687C42.2624 195.109 42.7951 195.701 43.1744 196.464C43.5536 197.227 43.7433 198.117 43.7433 199.136C43.7433 200.15 43.5536 201.036 43.1744 201.795C42.7951 202.553 42.2624 203.143 41.5763 203.565C40.8903 203.987 40.087 204.198 39.1665 204.198ZM39.1729 202.594C39.7695 202.594 40.2638 202.436 40.6559 202.121C41.0479 201.805 41.3377 201.386 41.5252 200.862C41.717 200.337 41.8129 199.76 41.8129 199.129C41.8129 198.503 41.717 197.928 41.5252 197.403C41.3377 196.875 41.0479 196.451 40.6559 196.131C40.2638 195.812 39.7695 195.652 39.1729 195.652C38.5721 195.652 38.0735 195.812 37.6772 196.131C37.2852 196.451 36.9933 196.875 36.8015 197.403C36.614 197.928 36.5202 198.503 36.5202 199.129C36.5202 199.76 36.614 200.337 36.8015 200.862C36.9933 201.386 37.2852 201.805 37.6772 202.121C38.0735 202.436 38.5721 202.594 39.1729 202.594ZM51.3865 201.635L54.557 194.182H56.2061L52.0961 204H50.677L46.65 194.182H48.28L51.3865 201.635ZM47.7495 194.182V204H45.8766V194.182H47.7495ZM55.0748 204V194.182H56.9348V204H55.0748ZM63.6177 204.198C62.6973 204.198 61.894 203.987 61.2079 203.565C60.5218 203.143 59.9892 202.553 59.6099 201.795C59.2306 201.036 59.041 200.15 59.041 199.136C59.041 198.117 59.2306 197.227 59.6099 196.464C59.9892 195.701 60.5218 195.109 61.2079 194.687C61.894 194.265 62.6973 194.054 63.6177 194.054C64.5382 194.054 65.3414 194.265 66.0275 194.687C66.7136 195.109 67.2463 195.701 67.6255 196.464C68.0048 197.227 68.1944 198.117 68.1944 199.136C68.1944 200.15 68.0048 201.036 67.6255 201.795C67.2463 202.553 66.7136 203.143 66.0275 203.565C65.3414 203.987 64.5382 204.198 63.6177 204.198ZM63.6241 202.594C64.2207 202.594 64.715 202.436 65.1071 202.121C65.4991 201.805 65.7889 201.386 65.9764 200.862C66.1681 200.337 66.264 199.76 66.264 199.129C66.264 198.503 66.1681 197.928 65.9764 197.403C65.7889 196.875 65.4991 196.451 65.1071 196.131C64.715 195.812 64.2207 195.652 63.6241 195.652C63.0233 195.652 62.5247 195.812 62.1284 196.131C61.7363 196.451 61.4444 196.875 61.2527 197.403C61.0652 197.928 60.9714 198.503 60.9714 199.129C60.9714 199.76 61.0652 200.337 61.2527 200.862C61.4444 201.386 61.7363 201.805 62.1284 202.121C62.5247 202.436 63.0233 202.594 63.6241 202.594ZM74.5529 207.343V190.909H76.4641V207.343H74.5529ZM74.5529 204.198C73.8583 204.198 73.2255 204.079 72.6545 203.84C72.0835 203.597 71.5913 203.252 71.1779 202.805C70.7646 202.357 70.445 201.822 70.2191 201.2C69.9975 200.578 69.8867 199.89 69.8867 199.136C69.8867 198.373 69.9975 197.68 70.2191 197.058C70.445 196.436 70.7646 195.901 71.1779 195.454C71.5913 195.006 72.0835 194.661 72.6545 194.418C73.2255 194.175 73.8583 194.054 74.5529 194.054H75.0259V204.198H74.5529ZM74.5529 202.587H74.8214V195.665H74.5529C74.0927 195.665 73.6921 195.759 73.3512 195.946C73.0103 196.129 72.7269 196.383 72.5011 196.707C72.2752 197.026 72.1048 197.395 71.9897 197.812C71.8789 198.23 71.8235 198.671 71.8235 199.136C71.8235 199.758 71.9237 200.331 72.1239 200.855C72.3242 201.375 72.6268 201.795 73.0316 202.114C73.4364 202.43 73.9435 202.587 74.5529 202.587ZM76.4641 204.198H75.9847V194.054H76.4641C77.1587 194.054 77.7915 194.175 78.3626 194.418C78.9336 194.661 79.4237 195.006 79.8327 195.454C80.2461 195.901 80.5636 196.436 80.7852 197.058C81.011 197.68 81.1239 198.373 81.1239 199.136C81.1239 199.89 81.011 200.578 80.7852 201.2C80.5636 201.822 80.2461 202.357 79.8327 202.805C79.4237 203.252 78.9336 203.597 78.3626 203.84C77.7915 204.079 77.1587 204.198 76.4641 204.198ZM76.4641 202.587C76.9244 202.587 77.3249 202.498 77.6658 202.319C78.0067 202.136 78.2901 201.884 78.516 201.565C78.7418 201.241 78.9102 200.872 79.021 200.459C79.1317 200.041 79.1871 199.6 79.1871 199.136C79.1871 198.518 79.087 197.947 78.8867 197.423C78.6907 196.894 78.3903 196.47 77.9854 196.151C77.5806 195.827 77.0735 195.665 76.4641 195.665H76.1893V202.587H76.4641ZM87.3833 204.198C86.4629 204.198 85.6596 203.987 84.9735 203.565C84.2875 203.143 83.7548 202.553 83.3755 201.795C82.9963 201.036 82.8066 200.15 82.8066 199.136C82.8066 198.117 82.9963 197.227 83.3755 196.464C83.7548 195.701 84.2875 195.109 84.9735 194.687C85.6596 194.265 86.4629 194.054 87.3833 194.054C88.3038 194.054 89.1071 194.265 89.7931 194.687C90.4792 195.109 91.0119 195.701 91.3912 196.464C91.7704 197.227 91.9601 198.117 91.9601 199.136C91.9601 200.15 91.7704 201.036 91.3912 201.795C91.0119 202.553 90.4792 203.143 89.7931 203.565C89.1071 203.987 88.3038 204.198 87.3833 204.198ZM87.3897 202.594C87.9863 202.594 88.4806 202.436 88.8727 202.121C89.2647 201.805 89.5545 201.386 89.742 200.862C89.9338 200.337 90.0297 199.76 90.0297 199.129C90.0297 198.503 89.9338 197.928 89.742 197.403C89.5545 196.875 89.2647 196.451 88.8727 196.131C88.4806 195.812 87.9863 195.652 87.3897 195.652C86.7889 195.652 86.2903 195.812 85.894 196.131C85.502 196.451 85.21 196.875 85.0183 197.403C84.8308 197.928 84.737 198.503 84.737 199.129C84.737 199.76 84.8308 200.337 85.0183 200.862C85.21 201.386 85.502 201.805 85.894 202.121C86.2903 202.436 86.7889 202.594 87.3897 202.594ZM100.748 198.266V199.922H95.4293V198.266H100.748ZM95.9663 194.182V204H94.0934V194.182H95.9663ZM102.083 194.182V204H100.217V194.182H102.083ZM106.513 201.322L110.841 194.182H112.899V204H111.026V196.854L106.718 204H104.64V194.182H106.513V201.322ZM121.324 204V195.812H118.971C118.413 195.812 117.978 195.942 117.667 196.202C117.356 196.462 117.201 196.803 117.201 197.224C117.201 197.642 117.343 197.979 117.629 198.234C117.919 198.486 118.324 198.612 118.843 198.612H121.88V200.158H118.843C118.119 200.158 117.493 200.039 116.964 199.8C116.44 199.558 116.035 199.214 115.75 198.771C115.468 198.328 115.328 197.804 115.328 197.199C115.328 196.581 115.473 196.048 115.762 195.601C116.056 195.149 116.476 194.8 117.022 194.553C117.571 194.305 118.221 194.182 118.971 194.182H123.12V204H121.324ZM114.88 204L117.648 199.04H119.604L116.836 204H114.88ZM23.196 220.17V226H21.2848V216.182H23.1193V217.78H23.2408C23.4666 217.26 23.8203 216.842 24.3018 216.527C24.7876 216.212 25.3991 216.054 26.1364 216.054C26.8054 216.054 27.3913 216.195 27.8942 216.476C28.397 216.753 28.7869 217.166 29.0639 217.716C29.3409 218.266 29.4794 218.945 29.4794 219.755V226H27.5682V219.985C27.5682 219.273 27.3828 218.717 27.0121 218.317C26.6413 217.912 26.1321 217.71 25.4844 217.71C25.0412 217.71 24.647 217.805 24.3018 217.997C23.9609 218.189 23.6903 218.47 23.4901 218.841C23.294 219.207 23.196 219.651 23.196 220.17ZM36.1783 226.198C35.2578 226.198 34.4545 225.987 33.7685 225.565C33.0824 225.143 32.5497 224.553 32.1705 223.795C31.7912 223.036 31.6016 222.15 31.6016 221.136C31.6016 220.117 31.7912 219.227 32.1705 218.464C32.5497 217.701 33.0824 217.109 33.7685 216.687C34.4545 216.265 35.2578 216.054 36.1783 216.054C37.0987 216.054 37.902 216.265 38.5881 216.687C39.2741 217.109 39.8068 217.701 40.1861 218.464C40.5653 219.227 40.755 220.117 40.755 221.136C40.755 222.15 40.5653 223.036 40.1861 223.795C39.8068 224.553 39.2741 225.143 38.5881 225.565C37.902 225.987 37.0987 226.198 36.1783 226.198ZM36.1847 224.594C36.7813 224.594 37.2756 224.436 37.6676 224.121C38.0597 223.805 38.3494 223.386 38.5369 222.862C38.7287 222.337 38.8246 221.76 38.8246 221.129C38.8246 220.503 38.7287 219.928 38.5369 219.403C38.3494 218.875 38.0597 218.451 37.6676 218.131C37.2756 217.812 36.7813 217.652 36.1847 217.652C35.5838 217.652 35.0852 217.812 34.6889 218.131C34.2969 218.451 34.005 218.875 33.8132 219.403C33.6257 219.928 33.532 220.503 33.532 221.129C33.532 221.76 33.6257 222.337 33.8132 222.862C34.005 223.386 34.2969 223.805 34.6889 224.121C35.0852 224.436 35.5838 224.594 36.1847 224.594ZM50.9535 216.182L47.3931 226H45.3477L41.7809 216.182H43.8327L46.3192 223.737H46.4215L48.9016 216.182H50.9535ZM52.7496 226V216.182H54.6609V226H52.7496ZM53.7148 214.667C53.3825 214.667 53.0969 214.556 52.8583 214.335C52.6239 214.109 52.5067 213.84 52.5067 213.529C52.5067 213.214 52.6239 212.945 52.8583 212.724C53.0969 212.498 53.3825 212.385 53.7148 212.385C54.0472 212.385 54.3306 212.498 54.565 212.724C54.8036 212.945 54.9229 213.214 54.9229 213.529C54.9229 213.84 54.8036 214.109 54.565 214.335C54.3306 214.556 54.0472 214.667 53.7148 214.667ZM61.3677 226.198C60.4174 226.198 59.5993 225.983 58.9132 225.553C58.2314 225.118 57.7072 224.519 57.3407 223.756C56.9743 222.994 56.791 222.12 56.791 221.136C56.791 220.138 56.9785 219.259 57.3535 218.496C57.7285 217.729 58.2569 217.13 58.9387 216.7C59.6206 216.269 60.4238 216.054 61.3485 216.054C62.0943 216.054 62.7591 216.192 63.3429 216.469C63.9267 216.742 64.3975 217.126 64.7555 217.62C65.1177 218.114 65.3329 218.692 65.4011 219.352H63.541C63.4387 218.892 63.2044 218.496 62.8379 218.163C62.4757 217.831 61.9899 217.665 61.3805 217.665C60.8478 217.665 60.3812 217.805 59.9806 218.087C59.5843 218.364 59.2754 218.76 59.0538 219.276C58.8322 219.787 58.7214 220.392 58.7214 221.091C58.7214 221.807 58.8301 222.425 59.0474 222.945C59.2647 223.464 59.5716 223.867 59.9679 224.153C60.3684 224.438 60.8393 224.581 61.3805 224.581C61.7427 224.581 62.0708 224.515 62.3649 224.383C62.6632 224.246 62.9125 224.053 63.1127 223.801C63.3173 223.55 63.46 223.247 63.541 222.893H65.4011C65.3329 223.528 65.1262 224.095 64.7811 224.594C64.4359 225.092 63.9735 225.484 63.394 225.77C62.8187 226.055 62.1433 226.198 61.3677 226.198ZM70.3022 226.217C69.68 226.217 69.1175 226.102 68.6147 225.872C68.1119 225.638 67.7134 225.299 67.4194 224.856C67.1296 224.413 66.9847 223.869 66.9847 223.226C66.9847 222.672 67.0913 222.216 67.3043 221.858C67.5174 221.5 67.805 221.217 68.1673 221.008C68.5295 220.799 68.9343 220.641 69.3817 220.535C69.8292 220.428 70.2852 220.347 70.7496 220.292C71.3377 220.224 71.815 220.168 72.1815 220.126C72.5479 220.079 72.8143 220.004 72.9805 219.902C73.1467 219.8 73.2298 219.634 73.2298 219.403V219.359C73.2298 218.8 73.0721 218.368 72.7567 218.061C72.4457 217.754 71.9812 217.601 71.3633 217.601C70.7198 217.601 70.2127 217.744 69.842 218.029C69.4755 218.31 69.2219 218.624 69.0813 218.969L67.2852 218.56C67.4982 217.963 67.8093 217.482 68.2184 217.115C68.6317 216.744 69.1069 216.476 69.6438 216.31C70.1808 216.139 70.7454 216.054 71.3377 216.054C71.7298 216.054 72.1452 216.101 72.5842 216.195C73.0273 216.284 73.4407 216.45 73.8242 216.693C74.212 216.936 74.5295 217.283 74.7766 217.735C75.0238 218.183 75.1474 218.764 75.1474 219.48V226H73.2809V224.658H73.2042C73.0806 224.905 72.8952 225.148 72.6481 225.386C72.4009 225.625 72.0835 225.823 71.6957 225.981C71.3079 226.138 70.8434 226.217 70.3022 226.217ZM70.7177 224.683C71.2461 224.683 71.6978 224.579 72.0728 224.37C72.4521 224.161 72.7397 223.888 72.9357 223.552C73.136 223.211 73.2362 222.847 73.2362 222.459V221.193C73.168 221.261 73.0359 221.325 72.8398 221.385C72.6481 221.44 72.4286 221.489 72.1815 221.532C71.9343 221.57 71.6935 221.607 71.4592 221.641C71.2248 221.67 71.0288 221.696 70.8711 221.717C70.5004 221.764 70.1616 221.843 69.8548 221.954C69.5522 222.065 69.3093 222.224 69.1261 222.433C68.9471 222.638 68.8576 222.911 68.8576 223.251C68.8576 223.724 69.0323 224.082 69.3817 224.325C69.7312 224.564 70.1765 224.683 70.7177 224.683ZM77.693 226V216.182H79.5275V217.78H79.649C79.8535 217.239 80.188 216.817 80.6525 216.514C81.117 216.207 81.6731 216.054 82.3208 216.054C82.9771 216.054 83.5268 216.207 83.97 216.514C84.4174 216.821 84.7477 217.243 84.9608 217.78H85.063C85.2974 217.256 85.6703 216.838 86.1816 216.527C86.693 216.212 87.3024 216.054 88.0098 216.054C88.9004 216.054 89.627 216.333 90.1895 216.891C90.7562 217.45 91.0396 218.291 91.0396 219.416V226H89.1284V219.595C89.1284 218.93 88.9473 218.449 88.5851 218.151C88.2228 217.852 87.7903 217.703 87.2875 217.703C86.6653 217.703 86.1816 217.895 85.8365 218.278C85.4913 218.658 85.3187 219.146 85.3187 219.742V226H83.4139V219.474C83.4139 218.941 83.2477 218.513 82.9153 218.189C82.5829 217.865 82.1504 217.703 81.6177 217.703C81.2555 217.703 80.921 217.799 80.6142 217.991C80.3116 218.178 80.0666 218.44 79.8791 218.777C79.6958 219.114 79.6042 219.504 79.6042 219.947V226H77.693Z" fill="black"/>
<path d="M22.4098 38.0959C22.1584 38.0959 21.9411 38.0064 21.7578 37.8274C21.5788 37.6442 21.4893 37.4268 21.4893 37.1754C21.4893 36.9197 21.5788 36.7024 21.7578 36.5234C21.9411 36.3445 22.1584 36.255 22.4098 36.255C22.6655 36.255 22.8828 36.3445 23.0618 36.5234C23.2408 36.7024 23.3303 36.9197 23.3303 37.1754C23.3303 37.3416 23.2876 37.495 23.2024 37.6357C23.1214 37.7763 23.0107 37.8892 22.87 37.9744C22.7337 38.0554 22.5803 38.0959 22.4098 38.0959ZM26.5726 38V24.9091H30.7978C31.7267 24.9091 32.5023 25.0881 33.1245 25.446C33.7509 25.7997 34.2218 26.2812 34.5371 26.8906C34.8567 27.5 35.0165 28.1861 35.0165 28.9489C35.0165 29.7116 34.8588 30.3999 34.5435 31.0135C34.2282 31.6229 33.7594 32.1065 33.1373 32.4645C32.5151 32.8182 31.7417 32.995 30.8169 32.995H27.4931V31.9212H30.785C31.4711 31.9212 32.04 31.7933 32.4917 31.5376C32.9434 31.2777 33.28 30.924 33.5016 30.4766C33.7275 30.0291 33.8404 29.5199 33.8404 28.9489C33.8404 28.3778 33.7275 27.8686 33.5016 27.4212C33.28 26.9737 32.9412 26.6222 32.4853 26.3665C32.0336 26.1108 31.4604 25.983 30.7658 25.983H27.7679V38H26.5726ZM41.6578 38H37.8226V24.9091H41.888C43.1365 24.9091 44.204 25.169 45.0904 25.6889C45.981 26.2088 46.6628 26.9545 47.1358 27.9261C47.6088 28.8977 47.8453 30.0632 47.8453 31.4226C47.8453 32.7947 47.6025 33.973 47.1167 34.9574C46.6351 35.9375 45.932 36.6896 45.0073 37.2138C44.0868 37.7379 42.9703 38 41.6578 38ZM39.0179 36.9261H41.5875C42.7125 36.9261 43.6543 36.7045 44.4128 36.2614C45.1713 35.8182 45.7402 35.1854 46.1195 34.3629C46.4988 33.5405 46.6884 32.5604 46.6884 31.4226C46.6841 30.2933 46.4966 29.3217 46.1259 28.5078C45.7594 27.6939 45.214 27.0696 44.4895 26.6349C43.7694 26.2003 42.8787 25.983 41.8176 25.983H39.0179V36.9261ZM50.7425 38V24.9091H58.3171V25.983H51.9379V30.9112H57.7227V31.9851H51.9379V38H50.7425Z" fill="black"/>
<circle cx="260" cy="210" r="20" fill="#2D6AC8"/>
<path d="M254 219H266M260 201L260 215M260 215L265 210M260 215L255 210" stroke="white" stroke-width="2" stroke-linecap="round" stroke-linejoin="round"/>
</svg>
